<svg width="216" height="30" viewBox="0 0 216 30" fill="none" xmlns="http://www.w3.org/2000/svg">
<path d="M6.78249 0.772727V9.5H5.72568V1.71023H1.32795V9.5H0.271129V0.772727H6.78249ZM8.77788 11.9545V2.95455H9.74947V3.99432H9.86879C9.94265 3.88068 10.0449 3.7358 10.1756 3.55966C10.3091 3.38068 10.4995 3.22159 10.7466 3.08239C10.9966 2.94034 11.3347 2.86932 11.7608 2.86932C12.312 2.86932 12.7978 3.0071 13.2182 3.28267C13.6387 3.55824 13.9668 3.94886 14.2026 4.45455C14.4384 4.96023 14.5563 5.55682 14.5563 6.24432C14.5563 6.9375 14.4384 7.53835 14.2026 8.04688C13.9668 8.55256 13.6401 8.9446 13.2225 9.22301C12.8049 9.49858 12.3233 9.63636 11.7779 9.63636C11.3574 9.63636 11.0208 9.56676 10.7679 9.42756C10.5151 9.28551 10.3205 9.125 10.1841 8.94602C10.0478 8.7642 9.94265 8.61364 9.86879 8.49432H9.78356V11.9545H8.77788ZM9.76651 6.22727C9.76651 6.72159 9.83896 7.15767 9.98384 7.53551C10.1287 7.91051 10.3404 8.20455 10.6188 8.41761C10.8972 8.62784 11.2381 8.73295 11.6415 8.73295C12.062 8.73295 12.4128 8.62216 12.6941 8.40057C12.9782 8.17614 13.1912 7.875 13.3333 7.49716C13.4782 7.11648 13.5506 6.69318 13.5506 6.22727C13.5506 5.76705 13.4796 5.35227 13.3375 4.98295C13.1983 4.6108 12.9867 4.31676 12.7026 4.10085C12.4213 3.8821 12.0676 3.77273 11.6415 3.77273C11.2324 3.77273 10.8887 3.87642 10.6103 4.08381C10.3319 4.28835 10.1216 4.57528 9.97958 4.9446C9.83754 5.31108 9.76651 5.73864 9.76651 6.22727ZM17.0961 8.01705L20.2495 2.95455H21.4086V9.5H20.4029V4.4375L17.2665 9.5H16.0904V2.95455H17.0961V8.01705ZM26.6255 9.5V2.95455H31.7733V9.5H30.7676V3.89205H27.6312V9.5H26.6255ZM36.269 9.63636C35.6781 9.63636 35.1596 9.49574 34.7136 9.21449C34.2704 8.93324 33.9238 8.53977 33.6738 8.03409C33.4267 7.52841 33.3031 6.9375 33.3031 6.26136C33.3031 5.57955 33.4267 4.98437 33.6738 4.47585C33.9238 3.96733 34.2704 3.57244 34.7136 3.29119C35.1596 3.00994 35.6781 2.86932 36.269 2.86932C36.8599 2.86932 37.377 3.00994 37.8201 3.29119C38.2662 3.57244 38.6127 3.96733 38.8599 4.47585C39.1099 4.98437 39.2349 5.57955 39.2349 6.26136C39.2349 6.9375 39.1099 7.52841 38.8599 8.03409C38.6127 8.53977 38.2662 8.93324 37.8201 9.21449C37.377 9.49574 36.8599 9.63636 36.269 9.63636ZM36.269 8.73295C36.7179 8.73295 37.0872 8.6179 37.377 8.38778C37.6667 8.15767 37.8812 7.85511 38.0204 7.48011C38.1596 7.10511 38.2292 6.69886 38.2292 6.26136C38.2292 5.82386 38.1596 5.41619 38.0204 5.03835C37.8812 4.66051 37.6667 4.35511 37.377 4.12216C37.0872 3.8892 36.7179 3.77273 36.269 3.77273C35.8201 3.77273 35.4508 3.8892 35.161 4.12216C34.8713 4.35511 34.6568 4.66051 34.5176 5.03835C34.3784 5.41619 34.3088 5.82386 34.3088 6.26136C34.3088 6.69886 34.3784 7.10511 34.5176 7.48011C34.6568 7.85511 34.8713 8.15767 35.161 8.38778C35.4508 8.6179 35.8201 8.73295 36.269 8.73295ZM40.7701 9.5V2.95455H41.7757V5.80114H42.4405L44.7928 2.95455H46.0882L43.4462 6.10795L46.1223 9.5H44.8269L42.6792 6.73864H41.7757V9.5H40.7701ZM47.8631 11.9545C47.6926 11.9545 47.5407 11.9403 47.4071 11.9119C47.2736 11.8864 47.1813 11.8608 47.1301 11.8352L47.3858 10.9489C47.6301 11.0114 47.8461 11.0341 48.0336 11.017C48.2211 11 48.3873 10.9162 48.5321 10.7656C48.6799 10.6179 48.8148 10.3778 48.937 10.0455L49.1245 9.53409L46.704 2.95455H47.7949L49.6017 8.17045H49.6699L51.4767 2.95455H52.5676L49.7892 10.4545C49.6642 10.7926 49.5094 11.0724 49.3248 11.294C49.1401 11.5185 48.9256 11.6847 48.6813 11.7926C48.4398 11.9006 48.1671 11.9545 47.8631 11.9545ZM53.8951 9.5V2.95455H59.0428V9.5H58.0371V3.89205H54.9007V9.5H53.8951ZM60.8794 9.5V2.95455H61.8851V5.80114H62.5499L64.9022 2.95455H66.1976L63.5556 6.10795L66.2317 9.5H64.9363L62.7885 6.73864H61.8851V9.5H60.8794ZM69.7995 9.63636C69.1689 9.63636 68.6248 9.49716 68.1674 9.21875C67.7129 8.9375 67.362 8.54545 67.1149 8.04261C66.8706 7.53693 66.7484 6.94886 66.7484 6.27841C66.7484 5.60795 66.8706 5.01705 67.1149 4.50568C67.362 3.99148 67.7058 3.59091 68.1461 3.30398C68.5893 3.0142 69.1064 2.86932 69.6973 2.86932C70.0382 2.86932 70.3748 2.92614 70.7072 3.03977C71.0396 3.15341 71.3422 3.33807 71.6149 3.59375C71.8876 3.84659 72.1049 4.18182 72.2669 4.59943C72.4288 5.01705 72.5098 5.53125 72.5098 6.14205V6.56818H67.4643V5.69886H71.487C71.487 5.32955 71.4132 5 71.2654 4.71023C71.1206 4.42045 70.9132 4.19176 70.6433 4.02415C70.3762 3.85653 70.0609 3.77273 69.6973 3.77273C69.2967 3.77273 68.9501 3.87216 68.6575 4.07102C68.3677 4.26705 68.1447 4.52273 67.9885 4.83807C67.8322 5.15341 67.7541 5.49148 67.7541 5.85227V6.43182C67.7541 6.92614 67.8393 7.34517 68.0098 7.68892C68.1831 8.02983 68.4231 8.28977 68.7299 8.46875C69.0368 8.64489 69.3933 8.73295 69.7995 8.73295C70.0637 8.73295 70.3024 8.69602 70.5154 8.62216C70.7314 8.54545 70.9174 8.43182 71.0737 8.28125C71.2299 8.12784 71.3507 7.9375 71.4359 7.71023L72.4075 7.98295C72.3052 8.3125 72.1333 8.60227 71.8919 8.85227C71.6504 9.09943 71.3521 9.29261 70.997 9.43182C70.6419 9.56818 70.2427 9.63636 69.7995 9.63636ZM80.0737 9.63636C79.4828 9.63636 78.9643 9.49574 78.5183 9.21449C78.0751 8.93324 77.7285 8.53977 77.4785 8.03409C77.2314 7.52841 77.1078 6.9375 77.1078 6.26136C77.1078 5.57955 77.2314 4.98437 77.4785 4.47585C77.7285 3.96733 78.0751 3.57244 78.5183 3.29119C78.9643 3.00994 79.4828 2.86932 80.0737 2.86932C80.6646 2.86932 81.1816 3.00994 81.6248 3.29119C82.0708 3.57244 82.4174 3.96733 82.6646 4.47585C82.9146 4.98437 83.0396 5.57955 83.0396 6.26136C83.0396 6.9375 82.9146 7.52841 82.6646 8.03409C82.4174 8.53977 82.0708 8.93324 81.6248 9.21449C81.1816 9.49574 80.6646 9.63636 80.0737 9.63636ZM80.0737 8.73295C80.5225 8.73295 80.8919 8.6179 81.1816 8.38778C81.4714 8.15767 81.6859 7.85511 81.8251 7.48011C81.9643 7.10511 82.0339 6.69886 82.0339 6.26136C82.0339 5.82386 81.9643 5.41619 81.8251 5.03835C81.6859 4.66051 81.4714 4.35511 81.1816 4.12216C80.8919 3.8892 80.5225 3.77273 80.0737 3.77273C79.6248 3.77273 79.2555 3.8892 78.9657 4.12216C78.676 4.35511 78.4615 4.66051 78.3223 5.03835C78.1831 5.41619 78.1135 5.82386 78.1135 6.26136C78.1135 6.69886 78.1831 7.10511 78.3223 7.48011C78.4615 7.85511 78.676 8.15767 78.9657 8.38778C79.2555 8.6179 79.6248 8.73295 80.0737 8.73295ZM83.7193 3.89205V2.95455H89.0375V3.89205H86.8897V9.5H85.8841V3.89205H83.7193ZM97.4632 0.772727V9.5H95.6181V2.52415H95.5669L93.5684 3.77699V2.14062L95.7289 0.772727H97.4632ZM102.959 9.69176C102.226 9.68892 101.596 9.50852 101.067 9.15057C100.542 8.79261 100.137 8.27415 99.8528 7.59517C99.5716 6.91619 99.4324 6.09943 99.4352 5.14489C99.4352 4.19318 99.5758 3.3821 99.8571 2.71165C100.141 2.04119 100.546 1.53125 101.072 1.18182C101.6 0.829545 102.229 0.653409 102.959 0.653409C103.689 0.653409 104.317 0.829545 104.843 1.18182C105.371 1.53409 105.778 2.04545 106.062 2.71591C106.346 3.38352 106.486 4.19318 106.483 5.14489C106.483 6.10227 106.341 6.92045 106.057 7.59943C105.776 8.27841 105.373 8.79687 104.847 9.15483C104.322 9.51278 103.692 9.69176 102.959 9.69176ZM102.959 8.16193C103.459 8.16193 103.858 7.91051 104.157 7.40767C104.455 6.90483 104.603 6.15057 104.6 5.14489C104.6 4.48295 104.532 3.93182 104.395 3.49148C104.262 3.05114 104.072 2.72017 103.824 2.49858C103.58 2.27699 103.292 2.16619 102.959 2.16619C102.462 2.16619 102.064 2.41477 101.766 2.91193C101.468 3.40909 101.317 4.15341 101.314 5.14489C101.314 5.81534 101.381 6.375 101.515 6.82386C101.651 7.26989 101.843 7.60511 102.09 7.82955C102.337 8.05114 102.627 8.16193 102.959 8.16193ZM113.998 9.69176C113.265 9.68892 112.635 9.50852 112.106 9.15057C111.581 8.79261 111.176 8.27415 110.892 7.59517C110.611 6.91619 110.471 6.09943 110.474 5.14489C110.474 4.19318 110.615 3.3821 110.896 2.71165C111.18 2.04119 111.585 1.53125 112.111 1.18182C112.639 0.829545 113.268 0.653409 113.998 0.653409C114.729 0.653409 115.356 0.829545 115.882 1.18182C116.41 1.53409 116.817 2.04545 117.101 2.71591C117.385 3.38352 117.525 4.19318 117.523 5.14489C117.523 6.10227 117.381 6.92045 117.096 7.59943C116.815 8.27841 116.412 8.79687 115.886 9.15483C115.361 9.51278 114.731 9.69176 113.998 9.69176ZM113.998 8.16193C114.498 8.16193 114.898 7.91051 115.196 7.40767C115.494 6.90483 115.642 6.15057 115.639 5.14489C115.639 4.48295 115.571 3.93182 115.434 3.49148C115.301 3.05114 115.111 2.72017 114.863 2.49858C114.619 2.27699 114.331 2.16619 113.998 2.16619C113.501 2.16619 113.104 2.41477 112.805 2.91193C112.507 3.40909 112.356 4.15341 112.354 5.14489C112.354 5.81534 112.42 6.375 112.554 6.82386C112.69 7.26989 112.882 7.60511 113.129 7.82955C113.376 8.05114 113.666 8.16193 113.998 8.16193ZM122.26 9.69176C121.527 9.68892 120.896 9.50852 120.368 9.15057C119.843 8.79261 119.438 8.27415 119.154 7.59517C118.872 6.91619 118.733 6.09943 118.736 5.14489C118.736 4.19318 118.877 3.3821 119.158 2.71165C119.442 2.04119 119.847 1.53125 120.372 1.18182C120.901 0.829545 121.53 0.653409 122.26 0.653409C122.99 0.653409 123.618 0.829545 124.144 1.18182C124.672 1.53409 125.078 2.04545 125.362 2.71591C125.646 3.38352 125.787 4.19318 125.784 5.14489C125.784 6.10227 125.642 6.92045 125.358 7.59943C125.077 8.27841 124.673 8.79687 124.148 9.15483C123.622 9.51278 122.993 9.69176 122.26 9.69176ZM122.26 8.16193C122.76 8.16193 123.159 7.91051 123.458 7.40767C123.756 6.90483 123.904 6.15057 123.901 5.14489C123.901 4.48295 123.833 3.93182 123.696 3.49148C123.563 3.05114 123.372 2.72017 123.125 2.49858C122.881 2.27699 122.593 2.16619 122.26 2.16619C121.763 2.16619 121.365 2.41477 121.067 2.91193C120.769 3.40909 120.618 4.15341 120.615 5.14489C120.615 5.81534 120.682 6.375 120.816 6.82386C120.952 7.26989 121.144 7.60511 121.391 7.82955C121.638 8.05114 121.928 8.16193 122.26 8.16193ZM130.522 9.69176C129.789 9.68892 129.158 9.50852 128.63 9.15057C128.104 8.79261 127.699 8.27415 127.415 7.59517C127.134 6.91619 126.995 6.09943 126.998 5.14489C126.998 4.19318 127.138 3.3821 127.42 2.71165C127.704 2.04119 128.108 1.53125 128.634 1.18182C129.162 0.829545 129.792 0.653409 130.522 0.653409C131.252 0.653409 131.88 0.829545 132.405 1.18182C132.934 1.53409 133.34 2.04545 133.624 2.71591C133.908 3.38352 134.049 4.19318 134.046 5.14489C134.046 6.10227 133.904 6.92045 133.62 7.59943C133.339 8.27841 132.935 8.79687 132.41 9.15483C131.884 9.51278 131.255 9.69176 130.522 9.69176ZM130.522 8.16193C131.022 8.16193 131.421 7.91051 131.719 7.40767C132.018 6.90483 132.165 6.15057 132.162 5.14489C132.162 4.48295 132.094 3.93182 131.958 3.49148C131.824 3.05114 131.634 2.72017 131.387 2.49858C131.143 2.27699 130.854 2.16619 130.522 2.16619C130.025 2.16619 129.627 2.41477 129.329 2.91193C129.03 3.40909 128.88 4.15341 128.877 5.14489C128.877 5.81534 128.944 6.375 129.077 6.82386C129.214 7.26989 129.405 7.60511 129.653 7.82955C129.9 8.05114 130.189 8.16193 130.522 8.16193ZM142.345 2.95028V9.5H140.508V2.95028H142.345ZM145.038 2.95028V4.45028H137.866V2.95028H145.038ZM145.038 0.772727V2.27273H137.866V0.772727H145.038ZM154.612 0.5L155.124 1.11364C154.925 1.30682 154.695 1.44176 154.433 1.51847C154.172 1.59517 153.877 1.64205 153.547 1.65909C153.218 1.67614 152.851 1.69318 152.448 1.71023C151.993 1.72727 151.617 1.83807 151.318 2.04261C151.02 2.24716 150.79 2.54261 150.628 2.92898C150.466 3.31534 150.362 3.78977 150.317 4.35227H150.402C150.624 3.94318 150.931 3.64205 151.323 3.44886C151.715 3.25568 152.135 3.15909 152.584 3.15909C153.095 3.15909 153.556 3.27841 153.965 3.51705C154.374 3.75568 154.698 4.10938 154.936 4.57812C155.175 5.04688 155.294 5.625 155.294 6.3125C155.294 6.99716 155.172 7.58807 154.928 8.08523C154.686 8.58239 154.347 8.96591 153.909 9.2358C153.475 9.50284 152.965 9.63636 152.379 9.63636C151.794 9.63636 151.281 9.49858 150.841 9.22301C150.401 8.9446 150.058 8.53267 149.814 7.98722C149.57 7.43892 149.448 6.76136 149.448 5.95455V5.25568C149.448 3.7983 149.695 2.69318 150.189 1.94034C150.686 1.1875 151.433 0.798295 152.431 0.772727C152.783 0.761364 153.097 0.758523 153.372 0.764204C153.648 0.769886 153.888 0.757102 154.093 0.725852C154.297 0.694602 154.47 0.619318 154.612 0.5ZM152.379 8.73295C152.774 8.73295 153.114 8.63352 153.398 8.43466C153.685 8.2358 153.905 7.95597 154.058 7.59517C154.212 7.23153 154.289 6.80398 154.289 6.3125C154.289 5.83523 154.21 5.42898 154.054 5.09375C153.901 4.75852 153.681 4.50284 153.394 4.3267C153.107 4.15057 152.763 4.0625 152.362 4.0625C152.07 4.0625 151.807 4.11222 151.574 4.21165C151.341 4.31108 151.142 4.45739 150.977 4.65057C150.813 4.84375 150.685 5.07955 150.594 5.35795C150.506 5.63636 150.459 5.95455 150.453 6.3125C150.453 7.04545 150.625 7.6321 150.969 8.07244C151.313 8.51278 151.783 8.73295 152.379 8.73295ZM159.577 9.63636C158.946 9.63636 158.402 9.49716 157.945 9.21875C157.49 8.9375 157.139 8.54545 156.892 8.04261C156.648 7.53693 156.526 6.94886 156.526 6.27841C156.526 5.60795 156.648 5.01705 156.892 4.50568C157.139 3.99148 157.483 3.59091 157.923 3.30398C158.367 3.0142 158.884 2.86932 159.475 2.86932C159.816 2.86932 160.152 2.92614 160.485 3.03977C160.817 3.15341 161.119 3.33807 161.392 3.59375C161.665 3.84659 161.882 4.18182 162.044 4.59943C162.206 5.01705 162.287 5.53125 162.287 6.14205V6.56818H157.242V5.69886H161.264C161.264 5.32955 161.191 5 161.043 4.71023C160.898 4.42045 160.691 4.19176 160.421 4.02415C160.154 3.85653 159.838 3.77273 159.475 3.77273C159.074 3.77273 158.727 3.87216 158.435 4.07102C158.145 4.26705 157.922 4.52273 157.766 4.83807C157.61 5.15341 157.531 5.49148 157.531 5.85227V6.43182C157.531 6.92614 157.617 7.34517 157.787 7.68892C157.96 8.02983 158.2 8.28977 158.507 8.46875C158.814 8.64489 159.171 8.73295 159.577 8.73295C159.841 8.73295 160.08 8.69602 160.293 8.62216C160.509 8.54545 160.695 8.43182 160.851 8.28125C161.007 8.12784 161.128 7.9375 161.213 7.71023L162.185 7.98295C162.083 8.3125 161.911 8.60227 161.669 8.85227C161.428 9.09943 161.129 9.29261 160.774 9.43182C160.419 9.56818 160.02 9.63636 159.577 9.63636ZM166.476 9.63636C165.862 9.63636 165.334 9.49148 164.891 9.2017C164.448 8.91193 164.107 8.51278 163.868 8.00426C163.629 7.49574 163.51 6.91477 163.51 6.26136C163.51 5.59659 163.632 5.00994 163.877 4.50142C164.124 3.99006 164.468 3.59091 164.908 3.30398C165.351 3.0142 165.868 2.86932 166.459 2.86932C166.919 2.86932 167.334 2.95455 167.703 3.125C168.073 3.29545 168.375 3.53409 168.611 3.84091C168.847 4.14773 168.993 4.50568 169.05 4.91477H168.044C167.968 4.61648 167.797 4.35227 167.533 4.12216C167.271 3.8892 166.919 3.77273 166.476 3.77273C166.084 3.77273 165.74 3.875 165.445 4.07955C165.152 4.28125 164.923 4.56676 164.759 4.93608C164.597 5.30256 164.516 5.73295 164.516 6.22727C164.516 6.73295 164.595 7.1733 164.754 7.5483C164.916 7.9233 165.144 8.21449 165.436 8.42188C165.732 8.62926 166.078 8.73295 166.476 8.73295C166.737 8.73295 166.975 8.6875 167.188 8.59659C167.401 8.50568 167.581 8.375 167.729 8.20455C167.877 8.03409 167.982 7.82955 168.044 7.59091H169.05C168.993 7.97727 168.852 8.32528 168.628 8.63494C168.406 8.94176 168.112 9.18608 167.746 9.3679C167.382 9.54688 166.959 9.63636 166.476 9.63636ZM170.52 9.5V2.95455H175.668V9.5H174.662V3.89205H171.526V9.5H170.52ZM176.925 9.5V8.5625H177.164C177.36 8.5625 177.523 8.52415 177.654 8.44744C177.784 8.3679 177.889 8.23011 177.969 8.03409C178.051 7.83523 178.114 7.55966 178.156 7.20739C178.202 6.85227 178.235 6.40057 178.254 5.85227L178.374 2.95455H182.737V9.5H181.732V3.89205H179.328L179.226 6.22727C179.203 6.7642 179.155 7.23722 179.081 7.64631C179.01 8.05256 178.901 8.39347 178.753 8.66903C178.608 8.9446 178.415 9.15199 178.173 9.29119C177.932 9.4304 177.629 9.5 177.266 9.5H176.925ZM186.509 9.65341C186.094 9.65341 185.718 9.57528 185.379 9.41903C185.041 9.25994 184.773 9.03125 184.574 8.73295C184.375 8.43182 184.276 8.06818 184.276 7.64205C184.276 7.26705 184.35 6.96307 184.497 6.73011C184.645 6.49432 184.843 6.30966 185.09 6.17614C185.337 6.04261 185.61 5.94318 185.908 5.87784C186.209 5.80966 186.512 5.75568 186.816 5.71591C187.213 5.66477 187.536 5.62642 187.783 5.60085C188.033 5.57244 188.215 5.52557 188.328 5.46023C188.445 5.39489 188.503 5.28125 188.503 5.11932V5.08523C188.503 4.66477 188.388 4.33807 188.158 4.10511C187.931 3.87216 187.585 3.75568 187.122 3.75568C186.642 3.75568 186.266 3.8608 185.993 4.07102C185.72 4.28125 185.529 4.50568 185.418 4.74432L184.463 4.40341C184.634 4.00568 184.861 3.69602 185.145 3.47443C185.432 3.25 185.744 3.09375 186.083 3.00568C186.423 2.91477 186.759 2.86932 187.088 2.86932C187.298 2.86932 187.54 2.89489 187.813 2.94602C188.088 2.99432 188.354 3.09517 188.61 3.24858C188.868 3.40199 189.083 3.63352 189.253 3.94318C189.423 4.25284 189.509 4.66761 189.509 5.1875V9.5H188.503V8.61364H188.452C188.384 8.75568 188.27 8.90767 188.111 9.0696C187.952 9.23153 187.74 9.36932 187.476 9.48295C187.212 9.59659 186.889 9.65341 186.509 9.65341ZM186.662 8.75C187.06 8.75 187.395 8.67188 187.668 8.51562C187.943 8.35938 188.151 8.15767 188.29 7.91051C188.432 7.66335 188.503 7.40341 188.503 7.13068V6.21023C188.46 6.26136 188.367 6.30824 188.222 6.35085C188.08 6.39062 187.915 6.42614 187.727 6.45739C187.543 6.4858 187.362 6.51136 187.186 6.53409C187.013 6.55398 186.872 6.57102 186.764 6.58523C186.503 6.61932 186.259 6.67472 186.031 6.75142C185.807 6.82528 185.625 6.9375 185.486 7.08807C185.35 7.2358 185.281 7.4375 185.281 7.69318C185.281 8.04261 185.411 8.30682 185.669 8.4858C185.931 8.66193 186.262 8.75 186.662 8.75ZM190.454 3.89205V2.95455H195.772V3.89205H193.624V9.5H192.618V3.89205H190.454ZM201.619 5.76705V6.70455H198.006V5.76705H201.619ZM198.244 2.95455V9.5H197.239V2.95455H198.244ZM202.387 2.95455V9.5H201.381V2.95455H202.387ZM206.149 9.65341C205.735 9.65341 205.358 9.57528 205.02 9.41903C204.682 9.25994 204.414 9.03125 204.215 8.73295C204.016 8.43182 203.916 8.06818 203.916 7.64205C203.916 7.26705 203.99 6.96307 204.138 6.73011C204.286 6.49432 204.483 6.30966 204.73 6.17614C204.977 6.04261 205.25 5.94318 205.548 5.87784C205.85 5.80966 206.152 5.75568 206.456 5.71591C206.854 5.66477 207.176 5.62642 207.423 5.60085C207.673 5.57244 207.855 5.52557 207.969 5.46023C208.085 5.39489 208.144 5.28125 208.144 5.11932V5.08523C208.144 4.66477 208.029 4.33807 207.798 4.10511C207.571 3.87216 207.226 3.75568 206.763 3.75568C206.283 3.75568 205.906 3.8608 205.634 4.07102C205.361 4.28125 205.169 4.50568 205.058 4.74432L204.104 4.40341C204.274 4.00568 204.502 3.69602 204.786 3.47443C205.073 3.25 205.385 3.09375 205.723 3.00568C206.064 2.91477 206.399 2.86932 206.729 2.86932C206.939 2.86932 207.181 2.89489 207.453 2.94602C207.729 2.99432 207.994 3.09517 208.25 3.24858C208.509 3.40199 208.723 3.63352 208.894 3.94318C209.064 4.25284 209.149 4.66761 209.149 5.1875V9.5H208.144V8.61364H208.093C208.024 8.75568 207.911 8.90767 207.752 9.0696C207.593 9.23153 207.381 9.36932 207.117 9.48295C206.852 9.59659 206.53 9.65341 206.149 9.65341ZM206.303 8.75C206.7 8.75 207.036 8.67188 207.308 8.51562C207.584 8.35938 207.791 8.15767 207.931 7.91051C208.073 7.66335 208.144 7.40341 208.144 7.13068V6.21023C208.101 6.26136 208.007 6.30824 207.862 6.35085C207.72 6.39062 207.556 6.42614 207.368 6.45739C207.183 6.4858 207.003 6.51136 206.827 6.53409C206.654 6.55398 206.513 6.57102 206.405 6.58523C206.144 6.61932 205.899 6.67472 205.672 6.75142C205.448 6.82528 205.266 6.9375 205.127 7.08807C204.99 7.2358 204.922 7.4375 204.922 7.69318C204.922 8.04261 205.051 8.30682 205.31 8.4858C205.571 8.66193 205.902 8.75 206.303 8.75ZM214.922 9.5V3.875H213.184C212.792 3.875 212.483 3.96591 212.259 4.14773C212.035 4.32955 211.922 4.57955 211.922 4.89773C211.922 5.21023 212.023 5.45597 212.225 5.63494C212.43 5.81392 212.709 5.90341 213.064 5.90341H215.178V6.84091H213.064C212.621 6.84091 212.239 6.76278 211.918 6.60653C211.597 6.45028 211.35 6.22727 211.177 5.9375C211.003 5.64489 210.917 5.2983 210.917 4.89773C210.917 4.49432 211.008 4.14773 211.189 3.85795C211.371 3.56818 211.631 3.34517 211.969 3.18892C212.31 3.03267 212.715 2.95455 213.184 2.95455H215.877V9.5H214.922ZM210.559 9.5L212.417 6.24432H213.508L211.65 9.5H210.559ZM9.33292 29.375V26.5625H9.87837C10.0119 26.4233 10.127 26.2727 10.2235 26.1108C10.3201 25.9489 10.4039 25.7571 10.475 25.5355C10.5488 25.3111 10.6113 25.0384 10.6625 24.7173C10.7136 24.3935 10.7591 24.0028 10.7988 23.5455L11.0204 20.9545H15.1795V26.5625H16.1852V29.375H15.1795V27.5H10.3386V29.375H9.33292ZM11.0204 26.5625H14.1738V21.892H11.9579L11.7875 23.5455C11.7164 24.2301 11.6284 24.8281 11.5233 25.3395C11.4181 25.8509 11.2505 26.2585 11.0204 26.5625ZM20.1792 27.6364C19.5882 27.6364 19.0698 27.4957 18.6238 27.2145C18.1806 26.9332 17.834 26.5398 17.584 26.0341C17.3368 25.5284 17.2132 24.9375 17.2132 24.2614C17.2132 23.5795 17.3368 22.9844 17.584 22.4759C17.834 21.9673 18.1806 21.5724 18.6238 21.2912C19.0698 21.0099 19.5882 20.8693 20.1792 20.8693C20.7701 20.8693 21.2871 21.0099 21.7303 21.2912C22.1763 21.5724 22.5229 21.9673 22.7701 22.4759C23.0201 22.9844 23.1451 23.5795 23.1451 24.2614C23.1451 24.9375 23.0201 25.5284 22.7701 26.0341C22.5229 26.5398 22.1763 26.9332 21.7303 27.2145C21.2871 27.4957 20.7701 27.6364 20.1792 27.6364ZM20.1792 26.733C20.628 26.733 20.9973 26.6179 21.2871 26.3878C21.5769 26.1577 21.7914 25.8551 21.9306 25.4801C22.0698 25.1051 22.1394 24.6989 22.1394 24.2614C22.1394 23.8239 22.0698 23.4162 21.9306 23.0384C21.7914 22.6605 21.5769 22.3551 21.2871 22.1222C20.9973 21.8892 20.628 21.7727 20.1792 21.7727C19.7303 21.7727 19.361 21.8892 19.0712 22.1222C18.7814 22.3551 18.5669 22.6605 18.4277 23.0384C18.2885 23.4162 18.2189 23.8239 18.2189 24.2614C18.2189 24.6989 18.2885 25.1051 18.4277 25.4801C18.5669 25.8551 18.7814 26.1577 19.0712 26.3878C19.361 26.6179 19.7303 26.733 20.1792 26.733ZM27.3393 27.6364C26.7257 27.6364 26.1973 27.4915 25.7541 27.2017C25.3109 26.9119 24.97 26.5128 24.7314 26.0043C24.4927 25.4957 24.3734 24.9148 24.3734 24.2614C24.3734 23.5966 24.4956 23.0099 24.7399 22.5014C24.987 21.9901 25.3308 21.5909 25.7711 21.304C26.2143 21.0142 26.7314 20.8693 27.3223 20.8693C27.7825 20.8693 28.1973 20.9545 28.5666 21.125C28.9359 21.2955 29.2385 21.5341 29.4743 21.8409C29.71 22.1477 29.8564 22.5057 29.9132 22.9148H28.9075C28.8308 22.6165 28.6603 22.3523 28.3961 22.1222C28.1348 21.8892 27.7825 21.7727 27.3393 21.7727C26.9473 21.7727 26.6035 21.875 26.3081 22.0795C26.0154 22.2812 25.7868 22.5668 25.622 22.9361C25.46 23.3026 25.3791 23.733 25.3791 24.2273C25.3791 24.733 25.4586 25.1733 25.6177 25.5483C25.7797 25.9233 26.0069 26.2145 26.2995 26.4219C26.595 26.6293 26.9416 26.733 27.3393 26.733C27.6007 26.733 27.8379 26.6875 28.051 26.5966C28.264 26.5057 28.4444 26.375 28.5922 26.2045C28.7399 26.0341 28.845 25.8295 28.9075 25.5909H29.9132C29.8564 25.9773 29.7157 26.3253 29.4913 26.6349C29.2697 26.9418 28.9757 27.1861 28.6092 27.3679C28.2456 27.5469 27.8223 27.6364 27.3393 27.6364ZM30.8677 21.892V20.9545H36.1859V21.892H34.0382V27.5H33.0325V21.892H30.8677ZM39.2392 27.6534C38.8244 27.6534 38.448 27.5753 38.1099 27.419C37.7718 27.2599 37.5034 27.0312 37.3045 26.733C37.1056 26.4318 37.0062 26.0682 37.0062 25.642C37.0062 25.267 37.0801 24.9631 37.2278 24.7301C37.3755 24.4943 37.573 24.3097 37.8201 24.1761C38.0673 24.0426 38.34 23.9432 38.6383 23.8778C38.9395 23.8097 39.242 23.7557 39.546 23.7159C39.9437 23.6648 40.2662 23.6264 40.5133 23.6009C40.7633 23.5724 40.9451 23.5256 41.0588 23.4602C41.1752 23.3949 41.2335 23.2812 41.2335 23.1193V23.0852C41.2335 22.6648 41.1184 22.3381 40.8883 22.1051C40.661 21.8722 40.3159 21.7557 39.8528 21.7557C39.3727 21.7557 38.9963 21.8608 38.7235 22.071C38.4508 22.2812 38.2591 22.5057 38.1483 22.7443L37.1937 22.4034C37.3642 22.0057 37.5914 21.696 37.8755 21.4744C38.1625 21.25 38.475 21.0937 38.813 21.0057C39.1539 20.9148 39.4892 20.8693 39.8187 20.8693C40.0289 20.8693 40.2704 20.8949 40.5431 20.946C40.8187 20.9943 41.0843 21.0952 41.34 21.2486C41.5985 21.402 41.813 21.6335 41.9835 21.9432C42.1539 22.2528 42.2392 22.6676 42.2392 23.1875V27.5H41.2335V26.6136H41.1824C41.1142 26.7557 41.0005 26.9077 40.8414 27.0696C40.6824 27.2315 40.4707 27.3693 40.2065 27.483C39.9423 27.5966 39.6199 27.6534 39.2392 27.6534ZM39.3926 26.75C39.7903 26.75 40.1255 26.6719 40.3983 26.5156C40.6738 26.3594 40.8812 26.1577 41.0204 25.9105C41.1625 25.6634 41.2335 25.4034 41.2335 25.1307V24.2102C41.1909 24.2614 41.0971 24.3082 40.9522 24.3509C40.8102 24.3906 40.6454 24.4261 40.4579 24.4574C40.2733 24.4858 40.0929 24.5114 39.9167 24.5341C39.7434 24.554 39.6028 24.571 39.4949 24.5852C39.2335 24.6193 38.9892 24.6747 38.7619 24.7514C38.5375 24.8253 38.3556 24.9375 38.2164 25.0881C38.0801 25.2358 38.0119 25.4375 38.0119 25.6932C38.0119 26.0426 38.1412 26.3068 38.3997 26.4858C38.661 26.6619 38.992 26.75 39.3926 26.75ZM44.0748 27.5V20.9545H46.7509C47.4554 20.9545 48.0151 21.1136 48.4299 21.4318C48.8446 21.75 49.052 22.1705 49.052 22.6932C49.052 23.0909 48.9341 23.3991 48.6983 23.6179C48.4625 23.8338 48.16 23.9801 47.7907 24.0568C48.0321 24.0909 48.2665 24.1761 48.4938 24.3125C48.7239 24.4489 48.9142 24.6364 49.0648 24.875C49.2154 25.1108 49.2907 25.4006 49.2907 25.7443C49.2907 26.0795 49.2054 26.3793 49.035 26.6435C48.8645 26.9077 48.6202 27.1165 48.302 27.2699C47.9838 27.4233 47.6032 27.5 47.16 27.5H44.0748ZM45.0293 26.5795H47.16C47.5066 26.5795 47.7779 26.4972 47.9739 26.3324C48.1699 26.1676 48.2679 25.9432 48.2679 25.6591C48.2679 25.321 48.1699 25.0554 47.9739 24.8622C47.7779 24.6662 47.5066 24.5682 47.16 24.5682H45.0293V26.5795ZM45.0293 23.6989H46.7509C47.0208 23.6989 47.2523 23.6619 47.4455 23.5881C47.6387 23.5114 47.7864 23.4034 47.8887 23.2642C47.9938 23.1222 48.0463 22.9545 48.0463 22.7614C48.0463 22.4858 47.9313 22.2699 47.7012 22.1136C47.4711 21.9545 47.1543 21.875 46.7509 21.875H45.0293V23.6989ZM50.813 27.5V20.9545H51.8187V23.8011H52.4835L54.8358 20.9545H56.1312L53.4892 24.108L56.1653 27.5H54.8699L52.7221 24.7386H51.8187V27.5H50.813ZM59.1845 27.6534C58.7697 27.6534 58.3933 27.5753 58.0552 27.419C57.7172 27.2599 57.4487 27.0312 57.2498 26.733C57.051 26.4318 56.9515 26.0682 56.9515 25.642C56.9515 25.267 57.0254 24.9631 57.1731 24.7301C57.3208 24.4943 57.5183 24.3097 57.7654 24.1761C58.0126 24.0426 58.2853 23.9432 58.5836 23.8778C58.8848 23.8097 59.1873 23.7557 59.4913 23.7159C59.889 23.6648 60.2115 23.6264 60.4586 23.6009C60.7086 23.5724 60.8904 23.5256 61.0041 23.4602C61.1206 23.3949 61.1788 23.2812 61.1788 23.1193V23.0852C61.1788 22.6648 61.0637 22.3381 60.8336 22.1051C60.6064 21.8722 60.2612 21.7557 59.7981 21.7557C59.318 21.7557 58.9416 21.8608 58.6689 22.071C58.3961 22.2812 58.2044 22.5057 58.0936 22.7443L57.139 22.4034C57.3095 22.0057 57.5368 21.696 57.8208 21.4744C58.1078 21.25 58.4203 21.0937 58.7583 21.0057C59.0993 20.9148 59.4345 20.8693 59.764 20.8693C59.9743 20.8693 60.2157 20.8949 60.4885 20.946C60.764 20.9943 61.0297 21.0952 61.2853 21.2486C61.5439 21.402 61.7583 21.6335 61.9288 21.9432C62.0993 22.2528 62.1845 22.6676 62.1845 23.1875V27.5H61.1788V26.6136H61.1277C61.0595 26.7557 60.9458 26.9077 60.7868 27.0696C60.6277 27.2315 60.416 27.3693 60.1518 27.483C59.8876 27.5966 59.5652 27.6534 59.1845 27.6534ZM59.3379 26.75C59.7356 26.75 60.0708 26.6719 60.3436 26.5156C60.6191 26.3594 60.8265 26.1577 60.9657 25.9105C61.1078 25.6634 61.1788 25.4034 61.1788 25.1307V24.2102C61.1362 24.2614 61.0424 24.3082 60.8975 24.3509C60.7555 24.3906 60.5907 24.4261 60.4032 24.4574C60.2186 24.4858 60.0382 24.5114 59.862 24.5341C59.6887 24.554 59.5481 24.571 59.4402 24.5852C59.1788 24.6193 58.9345 24.6747 58.7072 24.7514C58.4828 24.8253 58.301 24.9375 58.1618 25.0881C58.0254 25.2358 57.9572 25.4375 57.9572 25.6932C57.9572 26.0426 58.0865 26.3068 58.345 26.4858C58.6064 26.6619 58.9373 26.75 59.3379 26.75ZM67.3951 27.5V20.9545H72.5428V27.5H71.5371V21.892H68.4007V27.5H67.3951ZM77.0385 27.6364C76.4476 27.6364 75.9292 27.4957 75.4831 27.2145C75.04 26.9332 74.6934 26.5398 74.4434 26.0341C74.1962 25.5284 74.0726 24.9375 74.0726 24.2614C74.0726 23.5795 74.1962 22.9844 74.4434 22.4759C74.6934 21.9673 75.04 21.5724 75.4831 21.2912C75.9292 21.0099 76.4476 20.8693 77.0385 20.8693C77.6294 20.8693 78.1465 21.0099 78.5897 21.2912C79.0357 21.5724 79.3823 21.9673 79.6294 22.4759C79.8794 22.9844 80.0044 23.5795 80.0044 24.2614C80.0044 24.9375 79.8794 25.5284 79.6294 26.0341C79.3823 26.5398 79.0357 26.9332 78.5897 27.2145C78.1465 27.4957 77.6294 27.6364 77.0385 27.6364ZM77.0385 26.733C77.4874 26.733 77.8567 26.6179 78.1465 26.3878C78.4363 26.1577 78.6507 25.8551 78.79 25.4801C78.9292 25.1051 78.9988 24.6989 78.9988 24.2614C78.9988 23.8239 78.9292 23.4162 78.79 23.0384C78.6507 22.6605 78.4363 22.3551 78.1465 22.1222C77.8567 21.8892 77.4874 21.7727 77.0385 21.7727C76.5897 21.7727 76.2203 21.8892 75.9306 22.1222C75.6408 22.3551 75.4263 22.6605 75.2871 23.0384C75.1479 23.4162 75.0783 23.8239 75.0783 24.2614C75.0783 24.6989 75.1479 25.1051 75.2871 25.4801C75.4263 25.8551 75.6408 26.1577 75.9306 26.3878C76.2203 26.6179 76.5897 26.733 77.0385 26.733ZM90.1816 27.5L87.1816 23.4943H86.1078V27.5H85.051V18.7727H86.1078V22.5568H86.568L90.0623 18.7727H91.3237L87.7953 22.608L91.443 27.5H90.1816ZM94.851 27.6364C94.2601 27.6364 93.7417 27.4957 93.2956 27.2145C92.8525 26.9332 92.5059 26.5398 92.2559 26.0341C92.0087 25.5284 91.8851 24.9375 91.8851 24.2614C91.8851 23.5795 92.0087 22.9844 92.2559 22.4759C92.5059 21.9673 92.8525 21.5724 93.2956 21.2912C93.7417 21.0099 94.2601 20.8693 94.851 20.8693C95.4419 20.8693 95.959 21.0099 96.4022 21.2912C96.8482 21.5724 97.1948 21.9673 97.4419 22.4759C97.6919 22.9844 97.8169 23.5795 97.8169 24.2614C97.8169 24.9375 97.6919 25.5284 97.4419 26.0341C97.1948 26.5398 96.8482 26.9332 96.4022 27.2145C95.959 27.4957 95.4419 27.6364 94.851 27.6364ZM94.851 26.733C95.2999 26.733 95.6692 26.6179 95.959 26.3878C96.2488 26.1577 96.4632 25.8551 96.6025 25.4801C96.7417 25.1051 96.8113 24.6989 96.8113 24.2614C96.8113 23.8239 96.7417 23.4162 96.6025 23.0384C96.4632 22.6605 96.2488 22.3551 95.959 22.1222C95.6692 21.8892 95.2999 21.7727 94.851 21.7727C94.4022 21.7727 94.0328 21.8892 93.7431 22.1222C93.4533 22.3551 93.2388 22.6605 93.0996 23.0384C92.9604 23.4162 92.8908 23.8239 92.8908 24.2614C92.8908 24.6989 92.9604 25.1051 93.0996 25.4801C93.2388 25.8551 93.4533 26.1577 93.7431 26.3878C94.0328 26.6179 94.4022 26.733 94.851 26.733ZM99.3521 27.5V20.9545H100.358V23.8011H101.023L103.375 20.9545H104.67L102.028 24.108L104.704 27.5H103.409L101.261 24.7386H100.358V27.5H99.3521ZM110.843 20.9545V27.5H109.837V20.9545H110.843ZM110.451 24.0739V25.0114C110.224 25.0966 109.998 25.1719 109.773 25.2372C109.549 25.2997 109.313 25.3494 109.066 25.3864C108.819 25.4205 108.547 25.4375 108.252 25.4375C107.51 25.4375 106.915 25.2372 106.466 24.8366C106.02 24.4361 105.797 23.8352 105.797 23.0341V20.9375H106.803V23.0341C106.803 23.3693 106.867 23.6449 106.995 23.8608C107.123 24.0767 107.296 24.2372 107.515 24.3423C107.733 24.4474 107.979 24.5 108.252 24.5C108.678 24.5 109.063 24.4616 109.407 24.3849C109.753 24.3054 110.101 24.2017 110.451 24.0739ZM115.432 27.6364C114.802 27.6364 114.258 27.4972 113.8 27.2188C113.346 26.9375 112.995 26.5455 112.748 26.0426C112.503 25.5369 112.381 24.9489 112.381 24.2784C112.381 23.608 112.503 23.017 112.748 22.5057C112.995 21.9915 113.339 21.5909 113.779 21.304C114.222 21.0142 114.739 20.8693 115.33 20.8693C115.671 20.8693 116.008 20.9261 116.34 21.0398C116.672 21.1534 116.975 21.3381 117.248 21.5938C117.52 21.8466 117.738 22.1818 117.9 22.5994C118.062 23.017 118.143 23.5312 118.143 24.142V24.5682H113.097V23.6989H117.12C117.12 23.3295 117.046 23 116.898 22.7102C116.753 22.4205 116.546 22.1918 116.276 22.0241C116.009 21.8565 115.694 21.7727 115.33 21.7727C114.93 21.7727 114.583 21.8722 114.29 22.071C114.001 22.267 113.778 22.5227 113.621 22.8381C113.465 23.1534 113.387 23.4915 113.387 23.8523V24.4318C113.387 24.9261 113.472 25.3452 113.643 25.6889C113.816 26.0298 114.056 26.2898 114.363 26.4688C114.67 26.6449 115.026 26.733 115.432 26.733C115.697 26.733 115.935 26.696 116.148 26.6222C116.364 26.5455 116.55 26.4318 116.706 26.2812C116.863 26.1278 116.983 25.9375 117.069 25.7102L118.04 25.983C117.938 26.3125 117.766 26.6023 117.525 26.8523C117.283 27.0994 116.985 27.2926 116.63 27.4318C116.275 27.5682 115.876 27.6364 115.432 27.6364ZM119.063 21.892V20.9545H124.381V21.892H122.233V27.5H121.228V21.892H119.063ZM127.434 27.6534C127.02 27.6534 126.643 27.5753 126.305 27.419C125.967 27.2599 125.699 27.0312 125.5 26.733C125.301 26.4318 125.202 26.0682 125.202 25.642C125.202 25.267 125.275 24.9631 125.423 24.7301C125.571 24.4943 125.768 24.3097 126.015 24.1761C126.263 24.0426 126.535 23.9432 126.834 23.8778C127.135 23.8097 127.437 23.7557 127.741 23.7159C128.139 23.6648 128.461 23.6264 128.709 23.6009C128.959 23.5724 129.14 23.5256 129.254 23.4602C129.371 23.3949 129.429 23.2812 129.429 23.1193V23.0852C129.429 22.6648 129.314 22.3381 129.084 22.1051C128.856 21.8722 128.511 21.7557 128.048 21.7557C127.568 21.7557 127.192 21.8608 126.919 22.071C126.646 22.2812 126.454 22.5057 126.344 22.7443L125.389 22.4034C125.559 22.0057 125.787 21.696 126.071 21.4744C126.358 21.25 126.67 21.0937 127.008 21.0057C127.349 20.9148 127.684 20.8693 128.014 20.8693C128.224 20.8693 128.466 20.8949 128.738 20.946C129.014 20.9943 129.28 21.0952 129.535 21.2486C129.794 21.402 130.008 21.6335 130.179 21.9432C130.349 22.2528 130.434 22.6676 130.434 23.1875V27.5H129.429V26.6136H129.378C129.309 26.7557 129.196 26.9077 129.037 27.0696C128.878 27.2315 128.666 27.3693 128.402 27.483C128.138 27.5966 127.815 27.6534 127.434 27.6534ZM127.588 26.75C127.986 26.75 128.321 26.6719 128.594 26.5156C128.869 26.3594 129.077 26.1577 129.216 25.9105C129.358 25.6634 129.429 25.4034 129.429 25.1307V24.2102C129.386 24.2614 129.292 24.3082 129.148 24.3509C129.006 24.3906 128.841 24.4261 128.653 24.4574C128.469 24.4858 128.288 24.5114 128.112 24.5341C127.939 24.554 127.798 24.571 127.69 24.5852C127.429 24.6193 127.184 24.6747 126.957 24.7514C126.733 24.8253 126.551 24.9375 126.412 25.0881C126.275 25.2358 126.207 25.4375 126.207 25.6932C126.207 26.0426 126.336 26.3068 126.595 26.4858C126.856 26.6619 127.187 26.75 127.588 26.75ZM132.27 27.5V20.9545H134.946C135.651 20.9545 136.21 21.1136 136.625 21.4318C137.04 21.75 137.247 22.1705 137.247 22.6932C137.247 23.0909 137.129 23.3991 136.894 23.6179C136.658 23.8338 136.355 23.9801 135.986 24.0568C136.227 24.0909 136.462 24.1761 136.689 24.3125C136.919 24.4489 137.11 24.6364 137.26 24.875C137.411 25.1108 137.486 25.4006 137.486 25.7443C137.486 26.0795 137.401 26.3793 137.23 26.6435C137.06 26.9077 136.816 27.1165 136.497 27.2699C136.179 27.4233 135.798 27.5 135.355 27.5H132.27ZM133.225 26.5795H135.355C135.702 26.5795 135.973 26.4972 136.169 26.3324C136.365 26.1676 136.463 25.9432 136.463 25.6591C136.463 25.321 136.365 25.0554 136.169 24.8622C135.973 24.6662 135.702 24.5682 135.355 24.5682H133.225V26.5795ZM133.225 23.6989H134.946C135.216 23.6989 135.448 23.6619 135.641 23.5881C135.834 23.5114 135.982 23.4034 136.084 23.2642C136.189 23.1222 136.242 22.9545 136.242 22.7614C136.242 22.4858 136.127 22.2699 135.896 22.1136C135.666 21.9545 135.35 21.875 134.946 21.875H133.225V23.6989ZM139.656 29.9545C139.486 29.9545 139.334 29.9403 139.2 29.9119C139.067 29.8864 138.974 29.8608 138.923 29.8352L139.179 28.9489C139.423 29.0114 139.639 29.0341 139.827 29.017C140.014 29 140.18 28.9162 140.325 28.7656C140.473 28.6179 140.608 28.3778 140.73 28.0455L140.917 27.5341L138.497 20.9545H139.588L141.395 26.1705H141.463L143.27 20.9545H144.361L141.582 28.4545C141.457 28.7926 141.302 29.0724 141.118 29.294C140.933 29.5185 140.719 29.6847 140.474 29.7926C140.233 29.9006 139.96 29.9545 139.656 29.9545ZM150.069 26.017L153.222 20.9545H154.381V27.5H153.376V22.4375L150.239 27.5H149.063V20.9545H150.069V26.017ZM162.257 27.6364C161.666 27.6364 161.148 27.4957 160.702 27.2145C160.259 26.9332 159.912 26.5398 159.662 26.0341C159.415 25.5284 159.291 24.9375 159.291 24.2614C159.291 23.5795 159.415 22.9844 159.662 22.4759C159.912 21.9673 160.259 21.5724 160.702 21.2912C161.148 21.0099 161.666 20.8693 162.257 20.8693C162.848 20.8693 163.365 21.0099 163.808 21.2912C164.254 21.5724 164.601 21.9673 164.848 22.4759C165.098 22.9844 165.223 23.5795 165.223 24.2614C165.223 24.9375 165.098 25.5284 164.848 26.0341C164.601 26.5398 164.254 26.9332 163.808 27.2145C163.365 27.4957 162.848 27.6364 162.257 27.6364ZM162.257 26.733C162.706 26.733 163.075 26.6179 163.365 26.3878C163.655 26.1577 163.869 25.8551 164.009 25.4801C164.148 25.1051 164.218 24.6989 164.218 24.2614C164.218 23.8239 164.148 23.4162 164.009 23.0384C163.869 22.6605 163.655 22.3551 163.365 22.1222C163.075 21.8892 162.706 21.7727 162.257 21.7727C161.808 21.7727 161.439 21.8892 161.149 22.1222C160.86 22.3551 160.645 22.6605 160.506 23.0384C160.367 23.4162 160.297 23.8239 160.297 24.2614C160.297 24.6989 160.367 25.1051 160.506 25.4801C160.645 25.8551 160.86 26.1577 161.149 26.3878C161.439 26.6179 161.808 26.733 162.257 26.733ZM171.616 18.5L172.128 19.1136C171.929 19.3068 171.699 19.4418 171.437 19.5185C171.176 19.5952 170.881 19.642 170.551 19.6591C170.221 19.6761 169.855 19.6932 169.452 19.7102C168.997 19.7273 168.621 19.8381 168.322 20.0426C168.024 20.2472 167.794 20.5426 167.632 20.929C167.47 21.3153 167.366 21.7898 167.321 22.3523H167.406C167.628 21.9432 167.934 21.642 168.327 21.4489C168.719 21.2557 169.139 21.1591 169.588 21.1591C170.099 21.1591 170.559 21.2784 170.969 21.517C171.378 21.7557 171.702 22.1094 171.94 22.5781C172.179 23.0469 172.298 23.625 172.298 24.3125C172.298 24.9972 172.176 25.5881 171.932 26.0852C171.69 26.5824 171.351 26.9659 170.913 27.2358C170.479 27.5028 169.969 27.6364 169.383 27.6364C168.798 27.6364 168.285 27.4986 167.845 27.223C167.405 26.9446 167.062 26.5327 166.818 25.9872C166.574 25.4389 166.452 24.7614 166.452 23.9545V23.2557C166.452 21.7983 166.699 20.6932 167.193 19.9403C167.69 19.1875 168.437 18.7983 169.434 18.7727C169.787 18.7614 170.101 18.7585 170.376 18.7642C170.652 18.7699 170.892 18.7571 171.096 18.7259C171.301 18.6946 171.474 18.6193 171.616 18.5ZM169.383 26.733C169.778 26.733 170.118 26.6335 170.402 26.4347C170.689 26.2358 170.909 25.956 171.062 25.5952C171.216 25.2315 171.292 24.804 171.292 24.3125C171.292 23.8352 171.214 23.429 171.058 23.0938C170.905 22.7585 170.684 22.5028 170.398 22.3267C170.111 22.1506 169.767 22.0625 169.366 22.0625C169.074 22.0625 168.811 22.1122 168.578 22.2116C168.345 22.3111 168.146 22.4574 167.981 22.6506C167.817 22.8437 167.689 23.0795 167.598 23.358C167.51 23.6364 167.463 23.9545 167.457 24.3125C167.457 25.0455 167.629 25.6321 167.973 26.0724C168.317 26.5128 168.787 26.733 169.383 26.733ZM173.257 27.5V26.5625H173.496C173.692 26.5625 173.855 26.5241 173.986 26.4474C174.116 26.3679 174.221 26.2301 174.301 26.0341C174.383 25.8352 174.446 25.5597 174.488 25.2074C174.534 24.8523 174.567 24.4006 174.586 23.8523L174.706 20.9545H179.069V27.5H178.064V21.892H175.66L175.558 24.2273C175.535 24.7642 175.487 25.2372 175.413 25.6463C175.342 26.0526 175.233 26.3935 175.085 26.669C174.94 26.9446 174.747 27.152 174.506 27.2912C174.264 27.4304 173.961 27.5 173.598 27.5H173.257ZM182.841 27.6534C182.426 27.6534 182.05 27.5753 181.711 27.419C181.373 27.2599 181.105 27.0312 180.906 26.733C180.707 26.4318 180.608 26.0682 180.608 25.642C180.608 25.267 180.682 24.9631 180.829 24.7301C180.977 24.4943 181.175 24.3097 181.422 24.1761C181.669 24.0426 181.942 23.9432 182.24 23.8778C182.541 23.8097 182.844 23.7557 183.148 23.7159C183.545 23.6648 183.868 23.6264 184.115 23.6009C184.365 23.5724 184.547 23.5256 184.66 23.4602C184.777 23.3949 184.835 23.2812 184.835 23.1193V23.0852C184.835 22.6648 184.72 22.3381 184.49 22.1051C184.263 21.8722 183.917 21.7557 183.454 21.7557C182.974 21.7557 182.598 21.8608 182.325 22.071C182.052 22.2812 181.861 22.5057 181.75 22.7443L180.795 22.4034C180.966 22.0057 181.193 21.696 181.477 21.4744C181.764 21.25 182.077 21.0937 182.415 21.0057C182.756 20.9148 183.091 20.8693 183.42 20.8693C183.631 20.8693 183.872 20.8949 184.145 20.946C184.42 20.9943 184.686 21.0952 184.942 21.2486C185.2 21.402 185.415 21.6335 185.585 21.9432C185.756 22.2528 185.841 22.6676 185.841 23.1875V27.5H184.835V26.6136H184.784C184.716 26.7557 184.602 26.9077 184.443 27.0696C184.284 27.2315 184.072 27.3693 183.808 27.483C183.544 27.5966 183.221 27.6534 182.841 27.6534ZM182.994 26.75C183.392 26.75 183.727 26.6719 184 26.5156C184.275 26.3594 184.483 26.1577 184.622 25.9105C184.764 25.6634 184.835 25.4034 184.835 25.1307V24.2102C184.792 24.2614 184.699 24.3082 184.554 24.3509C184.412 24.3906 184.247 24.4261 184.059 24.4574C183.875 24.4858 183.694 24.5114 183.518 24.5341C183.345 24.554 183.204 24.571 183.096 24.5852C182.835 24.6193 182.591 24.6747 182.363 24.7514C182.139 24.8253 181.957 24.9375 181.818 25.0881C181.682 25.2358 181.613 25.4375 181.613 25.6932C181.613 26.0426 181.743 26.3068 182.001 26.4858C182.263 26.6619 182.594 26.75 182.994 26.75ZM190.335 27.6364C189.722 27.6364 189.193 27.4915 188.75 27.2017C188.307 26.9119 187.966 26.5128 187.727 26.0043C187.489 25.4957 187.369 24.9148 187.369 24.2614C187.369 23.5966 187.492 23.0099 187.736 22.5014C187.983 21.9901 188.327 21.5909 188.767 21.304C189.21 21.0142 189.727 20.8693 190.318 20.8693C190.779 20.8693 191.193 20.9545 191.563 21.125C191.932 21.2955 192.235 21.5341 192.47 21.8409C192.706 22.1477 192.852 22.5057 192.909 22.9148H191.904C191.827 22.6165 191.656 22.3523 191.392 22.1222C191.131 21.8892 190.779 21.7727 190.335 21.7727C189.943 21.7727 189.6 21.875 189.304 22.0795C189.012 22.2812 188.783 22.5668 188.618 22.9361C188.456 23.3026 188.375 23.733 188.375 24.2273C188.375 24.733 188.455 25.1733 188.614 25.5483C188.776 25.9233 189.003 26.2145 189.296 26.4219C189.591 26.6293 189.938 26.733 190.335 26.733C190.597 26.733 190.834 26.6875 191.047 26.5966C191.26 26.5057 191.441 26.375 191.588 26.2045C191.736 26.0341 191.841 25.8295 191.904 25.5909H192.909C192.852 25.9773 192.712 26.3253 192.487 26.6349C192.266 26.9418 191.972 27.1861 191.605 27.3679C191.242 27.5469 190.818 27.6364 190.335 27.6364ZM193.864 21.892V20.9545H199.182V21.892H197.034V27.5H196.029V21.892H193.864ZM201.655 26.017L204.808 20.9545H205.967V27.5H204.961V22.4375L201.825 27.5H200.649V20.9545H201.655V26.017Z" fill="#3F4E65"/>
</svg>
